<svg width="512" height="512" viewBox="0 0 512 512" xmlns="http://www.w3.org/2000/svg">
  <defs>
    <linearGradient id="bg" x1="0" y1="0" x2="1" y2="1">
      <stop offset="0%" stop-color="#0f4cfa" />
      <stop offset="100%" stop-color="#0ab0ff" />
    </linearGradient>
    <linearGradient id="ring" x1="0" y1="0" x2="1" y2="1">
      <stop offset="0%" stop-color="#ffffff" stop-opacity="0.9" />
      <stop offset="100%" stop-color="#e0ecff" stop-opacity="0.7" />
    </linearGradient>
  </defs>
  <rect width="512" height="512" rx="120" fill="url(#bg)" />
  <circle cx="256" cy="256" r="176" fill="none" stroke="url(#ring)" stroke-width="36" />
  <circle cx="256" cy="256" r="116" fill="rgba(255,255,255,0.14)" stroke="rgba(255,255,255,0.3)" stroke-width="12" />
  <path d="M206 348c-10.6 0-18-7.6-18-18V182c0-10.4 7.4-18 18-18h100c10.6 0 18 7.6 18 18v24c0 9.6-6.6 16.6-15.6 18.4l-13.8 3c-3.4.8-5.6 3-5.6 6v25.2c0 3.4 2.4 5.6 5.8 6.4l13.6 3.4c9.2 2.2 15.6 9 15.6 18.4v25.8c0 10.4-7.4 18-18 18H206zm82-40.2c0-3.2-2-5.2-5-5.2h-40c-3 0-5 2-5 5.2v12c0 3.2 2 5.2 5 5.2h40c3 0 5-2 5-5.2v-12z" fill="#ffffff" />
  <text x="256" y="444" text-anchor="middle" fill="#eaf1ff" font-size="44" font-family="Inter, 'Segoe UI', sans-serif" font-weight="700">
    Base Journey
  </text>
</svg>
